ffmpeg started on 2025-05-29 at 16:05:42
Report written to "D:\Convert\FFMetrics\reports\ssim_report-6.txt"
Log level: 32
Command line:
ffmpeg -hide_banner -nostdin -i "G:\\\xc0\xed\xe8\xec\xe5\\\xce\xed\xe3\xee\xe8\xed\xe3\xe8\\!_36_\xce\xf1\xe5\xed\xfc_2024\\JamClub\\\xd0\xe0\xed\xec\xe0 1_2\\[JamClub] Ranma 1_2 - 10 [1080p]_HEVC.mkv" -i "G:\\\xc0\xed\xe8\xec\xe5\\\xce\xed\xe3\xee\xe8\xed\xe3\xe8\\!_36_\xce\xf1\xe5\xed\xfc_2024\\JamClub\\\xd0\xe0\xed\xec\xe0 1_2\\[JamClub] Ranma 1_2 - 10 [1080p].mp4" -lavfi "[0:v]settb=AVTB,setpts=PTS-STARTPTS,format=pix_fmts=yuv420p10,fps=24000/1001,scale=1920:1080:flags=bicubic[main];[1:v]settb=AVTB,setpts=PTS-STARTPTS,format=pix_fmts=yuv420p,fps=24000/1001,scale=1920:1080:flags=bicubic[ref];[main][ref]ssim=eof_action=endall:stats_file='D\\:/Convert/FFMetrics/logs/ssim_logfile-6.txt'" -f null -
Input #0, matroska,webm, from 'G:\Аниме\Онгоинги\!_36_Осень_2024\JamClub\Ранма 1_2\[JamClub] Ranma 1_2 - 10 [1080p]_HEVC.mkv':
  Metadata:
    COMPATIBLE_BRANDS: isomiso2avc1mp41
    MAJOR_BRAND     : isom
    MINOR_VERSION   : 512
    ENCODER         : Lavf61.7.100
  Duration: 00:24:52.31, start: -0.001000, bitrate: 2101 kb/s
  Stream #0:0: Video: hevc (Main 10), yuv420p10le(tv, bt709, progressive), 1920x1080 [SAR 1:1 DAR 16:9], 23.98 fps, 23.98 tbr, 1k tbn (default)
      Metadata:
        HANDLER_NAME    : VideoHandler
        VENDOR_ID       : [0][0][0][0]
        ENCODER         : Lavc61.19.100 libx265
        BPS             : 1915801
        DURATION        : 00:24:52.240708333
        NUMBER_OF_FRAMES: 35778
        NUMBER_OF_BYTES : 357354382
        _STATISTICS_WRITING_APP: mkvpropedit v66.0.0 ('Josie') 64-bit
        _STATISTICS_WRITING_DATE_UTC: 2025-05-29 08:40:47
        _STATISTICS_TAGS: BPS DURATION NUMBER_OF_FRAMES NUMBER_OF_BYTES
  Stream #0:1(eng): Audio: aac (LC), 48000 Hz, stereo, fltp (default)
      Metadata:
        HANDLER_NAME    : SoundHandler
        VENDOR_ID       : [0][0][0][0]
        ENCODER         : Lavc61.19.100 aac
        BPS             : 181398
        DURATION        : 00:24:52.269000000
        NUMBER_OF_FRAMES: 69951
        NUMBER_OF_BYTES : 33836956
        _STATISTICS_WRITING_APP: mkvpropedit v66.0.0 ('Josie') 64-bit
        _STATISTICS_WRITING_DATE_UTC: 2025-05-29 08:40:47
        _STATISTICS_TAGS: BPS DURATION NUMBER_OF_FRAMES NUMBER_OF_BYTES
Input #1, mov,mp4,m4a,3gp,3g2,mj2, from 'G:\Аниме\Онгоинги\!_36_Осень_2024\JamClub\Ранма 1_2\[JamClub] Ranma 1_2 - 10 [1080p].mp4':
  Metadata:
    major_brand     : isom
    minor_version   : 512
    compatible_brands: isomiso2avc1mp41
    encoder         : Lavf60.16.100
  Duration: 00:24:52.29, start: 0.000000, bitrate: 4383 kb/s
  Stream #1:0[0x1](und): Video: h264 (High) (avc1 / 0x31637661), yuv420p(progressive), 1920x1080 [SAR 1:1 DAR 16:9], 4185 kb/s, 23.98 fps, 23.98 tbr, 90k tbn (default)
      Metadata:
        handler_name    : VideoHandler
        vendor_id       : [0][0][0][0]
  Stream #1:1[0x2](eng): Audio: aac (LC) (mp4a / 0x6134706D), 48000 Hz, stereo, fltp, 191 kb/s (default)
      Metadata:
        handler_name    : SoundHandler
        vendor_id       : [0][0][0][0]
Stream mapping:
  Stream #0:0 (hevc) -> settb:default
  Stream #1:0 (h264) -> settb:default
  ssim:default -> Stream #0:0 (wrapped_avframe)
  Stream #0:1 -> #0:1 (aac (native) -> pcm_s16le (native))
Output #0, null, to 'pipe:':
  Metadata:
    COMPATIBLE_BRANDS: isomiso2avc1mp41
    MAJOR_BRAND     : isom
    MINOR_VERSION   : 512
    encoder         : Lavf61.7.100
  Stream #0:0: Video: wrapped_avframe, yuv420p10le(tv, bt709, progressive), 1920x1080 [SAR 1:1 DAR 16:9], q=2-31, 200 kb/s, 23.98 fps, 23.98 tbn
      Metadata:
        encoder         : Lavc61.19.100 wrapped_avframe
  Stream #0:1(eng): Audio: pcm_s16le, 48000 Hz, stereo, s16, 1536 kb/s (default)
      Metadata:
        HANDLER_NAME    : SoundHandler
        VENDOR_ID       : [0][0][0][0]
        _STATISTICS_TAGS: BPS DURATION NUMBER_OF_FRAMES NUMBER_OF_BYTES
        BPS             : 181398
        DURATION        : 00:24:52.269000000
        NUMBER_OF_FRAMES: 69951
        NUMBER_OF_BYTES : 33836956
        _STATISTICS_WRITING_APP: mkvpropedit v66.0.0 ('Josie') 64-bit
        _STATISTICS_WRITING_DATE_UTC: 2025-05-29 08:40:47
        encoder         : Lavc61.19.100 pcm_s16le
frame=  113 fps=0.0 q=-0.0 size=N/A time=00:00:04.71 bitrate=N/A speed=9.13x    frame=  265 fps=259 q=-0.0 size=N/A time=00:00:11.05 bitrate=N/A speed=10.8x    frame=  453 fps=293 q=-0.0 size=N/A time=00:00:18.89 bitrate=N/A speed=12.2x    frame=  692 fps=336 q=-0.0 size=N/A time=00:00:28.86 bitrate=N/A speed=  14x    frame=  926 fps=361 q=-0.0 size=N/A time=00:00:38.62 bitrate=N/A speed=15.1x    frame= 1166 fps=378 q=-0.0 size=N/A time=00:00:48.63 bitrate=N/A speed=15.7x    frame= 1414 fps=392 q=-0.0 size=N/A time=00:00:58.97 bitrate=N/A speed=16.3x    frame= 1640 fps=398 q=-0.0 size=N/A time=00:01:08.40 bitrate=N/A speed=16.6x    frame= 1866 fps=402 q=-0.0 size=N/A time=00:01:17.82 bitrate=N/A speed=16.8x    frame= 2009 fps=390 q=-0.0 size=N/A time=00:01:23.79 bitrate=N/A speed=16.3x    frame= 2165 fps=382 q=-0.0 size=N/A time=00:01:30.29 bitrate=N/A speed=15.9x    frame= 2340 fps=379 q=-0.0 size=N/A time=00:01:37.59 bitrate=N/A speed=15.8x    frame= 2512 fps=375 q=-0.0 size=N/A time=00:01:44.77 bitrate=N/A speed=15.6x    frame= 2668 fps=370 q=-0.0 size=N/A time=00:01:51.27 bitrate=N/A speed=15.4x    frame= 2802 fps=363 q=-0.0 size=N/A time=00:01:56.86 bitrate=N/A speed=15.1x    frame= 2982 fps=362 q=-0.0 size=N/A time=00:02:04.37 bitrate=N/A speed=15.1x    frame= 3123 fps=357 q=-0.0 size=N/A time=00:02:10.25 bitrate=N/A speed=14.9x    frame= 3292 fps=355 q=-0.0 size=N/A time=00:02:17.30 bitrate=N/A speed=14.8x    frame= 3428 fps=350 q=-0.0 size=N/A time=00:02:22.97 bitrate=N/A speed=14.6x    frame= 3581 fps=348 q=-0.0 size=N/A time=00:02:29.35 bitrate=N/A speed=14.5x    frame= 3744 fps=346 q=-0.0 size=N/A time=00:02:36.15 bitrate=N/A speed=14.4x    frame= 3907 fps=345 q=-0.0 size=N/A time=00:02:42.95 bitrate=N/A speed=14.4x    frame= 4137 fps=349 q=-0.0 size=N/A time=00:02:52.54 bitrate=N/A speed=14.6x    frame= 4331 fps=350 q=-0.0 size=N/A time=00:03:00.63 bitrate=N/A speed=14.6x    frame= 4545 fps=353 q=-0.0 size=N/A time=00:03:09.56 bitrate=N/A speed=14.7x    frame= 4710 fps=352 q=-0.0 size=N/A time=00:03:16.44 bitrate=N/A speed=14.7x    frame= 4873 fps=350 q=-0.0 size=N/A time=00:03:23.24 bitrate=N/A speed=14.6x    frame= 5076 fps=352 q=-0.0 size=N/A time=00:03:31.71 bitrate=N/A speed=14.7x    frame= 5279 fps=353 q=-0.0 size=N/A time=00:03:40.17 bitrate=N/A speed=14.7x    frame= 5461 fps=353 q=-0.0 size=N/A time=00:03:47.76 bitrate=N/A speed=14.7x    frame= 5664 fps=355 q=-0.0 size=N/A time=00:03:56.23 bitrate=N/A speed=14.8x    frame= 5860 fps=355 q=-0.0 size=N/A time=00:04:04.41 bitrate=N/A speed=14.8x    frame= 6051 fps=356 q=-0.0 size=N/A time=00:04:12.37 bitrate=N/A speed=14.8x    frame= 6285 fps=359 q=-0.0 size=N/A time=00:04:22.13 bitrate=N/A speed=  15x    frame= 6516 fps=361 q=-0.0 size=N/A time=00:04:31.77 bitrate=N/A speed=15.1x    frame= 6732 fps=363 q=-0.0 size=N/A time=00:04:40.78 bitrate=N/A speed=15.1x    frame= 6963 fps=365 q=-0.0 size=N/A time=00:04:50.41 bitrate=N/A speed=15.2x    frame= 7223 fps=369 q=-0.0 size=N/A time=00:05:01.25 bitrate=N/A speed=15.4x    frame= 7412 fps=369 q=-0.0 size=N/A time=00:05:09.14 bitrate=N/A speed=15.4x    frame= 7609 fps=369 q=-0.0 size=N/A time=00:05:17.35 bitrate=N/A speed=15.4x    frame= 7816 fps=370 q=-0.0 size=N/A time=00:05:25.99 bitrate=N/A speed=15.4x    frame= 8035 fps=371 q=-0.0 size=N/A time=00:05:35.12 bitrate=N/A speed=15.5x    frame= 8265 fps=373 q=-0.0 size=N/A time=00:05:44.71 bitrate=N/A speed=15.6x    frame= 8512 fps=375 q=-0.0 size=N/A time=00:05:55.02 bitrate=N/A speed=15.7x    frame= 8747 fps=377 q=-0.0 size=N/A time=00:06:04.82 bitrate=N/A speed=15.7x    frame= 8911 fps=376 q=-0.0 size=N/A time=00:06:11.66 bitrate=N/A speed=15.7x    frame= 9067 fps=374 q=-0.0 size=N/A time=00:06:18.16 bitrate=N/A speed=15.6x    frame= 9293 fps=376 q=-0.0 size=N/A time=00:06:27.59 bitrate=N/A speed=15.7x    frame= 9528 fps=377 q=-0.0 size=N/A time=00:06:37.39 bitrate=N/A speed=15.7x    frame= 9786 fps=380 q=-0.0 size=N/A time=00:06:48.15 bitrate=N/A speed=15.8x    frame=10026 fps=381 q=-0.0 size=N/A time=00:06:58.16 bitrate=N/A speed=15.9x    frame=10266 fps=383 q=-0.0 size=N/A time=00:07:08.17 bitrate=N/A speed=  16x    frame=10393 fps=380 q=-0.0 size=N/A time=00:07:13.47 bitrate=N/A speed=15.9x    frame=10539 fps=379 q=-0.0 size=N/A time=00:07:19.56 bitrate=N/A speed=15.8x    frame=10765 fps=380 q=-0.0 size=N/A time=00:07:28.99 bitrate=N/A speed=15.8x    frame=11044 fps=383 q=-0.0 size=N/A time=00:07:40.62 bitrate=N/A speed=  16x    frame=11242 fps=383 q=-0.0 size=N/A time=00:07:48.88 bitrate=N/A speed=  16x    frame=11473 fps=384 q=-0.0 size=N/A time=00:07:58.51 bitrate=N/A speed=  16x    frame=11725 fps=386 q=-0.0 size=N/A time=00:08:09.03 bitrate=N/A speed=16.1x    frame=11956 fps=386 q=-0.0 size=N/A time=00:08:18.66 bitrate=N/A speed=16.1x    frame=12190 fps=388 q=-0.0 size=N/A time=00:08:28.42 bitrate=N/A speed=16.2x    frame=12389 fps=388 q=-0.0 size=N/A time=00:08:36.72 bitrate=N/A speed=16.2x    frame=12576 fps=387 q=-0.0 size=N/A time=00:08:44.52 bitrate=N/A speed=16.1x    frame=12780 fps=387 q=-0.0 size=N/A time=00:08:53.03 bitrate=N/A speed=16.2x    frame=13005 fps=388 q=-0.0 size=N/A time=00:09:02.41 bitrate=N/A speed=16.2x    frame=13221 fps=389 q=-0.0 size=N/A time=00:09:11.42 bitrate=N/A speed=16.2x    frame=13445 fps=389 q=-0.0 size=N/A time=00:09:20.76 bitrate=N/A speed=16.2x    frame=13690 fps=391 q=-0.0 size=N/A time=00:09:30.98 bitrate=N/A speed=16.3x    frame=13937 fps=392 q=-0.0 size=N/A time=00:09:41.28 bitrate=N/A speed=16.3x    frame=14146 fps=392 q=-0.0 size=N/A time=00:09:50.00 bitrate=N/A speed=16.4x    frame=14373 fps=393 q=-0.0 size=N/A time=00:09:59.47 bitrate=N/A speed=16.4x    frame=14600 fps=393 q=-0.0 size=N/A time=00:10:08.94 bitrate=N/A speed=16.4x    frame=14850 fps=395 q=-0.0 size=N/A time=00:10:19.36 bitrate=N/A speed=16.5x    frame=15106 fps=396 q=-0.0 size=N/A time=00:10:30.04 bitrate=N/A speed=16.5x    frame=15302 fps=396 q=-0.0 size=N/A time=00:10:38.22 bitrate=N/A speed=16.5x    frame=15503 fps=396 q=-0.0 size=N/A time=00:10:46.60 bitrate=N/A speed=16.5x    frame=15704 fps=396 q=-0.0 size=N/A time=00:10:54.98 bitrate=N/A speed=16.5x    frame=15888 fps=395 q=-0.0 size=N/A time=00:11:02.66 bitrate=N/A speed=16.5x    frame=16082 fps=395 q=-0.0 size=N/A time=00:11:10.75 bitrate=N/A speed=16.5x    frame=16296 fps=395 q=-0.0 size=N/A time=00:11:19.67 bitrate=N/A speed=16.5x    frame=16501 fps=395 q=-0.0 size=N/A time=00:11:28.22 bitrate=N/A speed=16.5x    frame=16716 fps=395 q=-0.0 size=N/A time=00:11:37.19 bitrate=N/A speed=16.5x    frame=16912 fps=395 q=-0.0 size=N/A time=00:11:45.37 bitrate=N/A speed=16.5x    frame=17146 fps=396 q=-0.0 size=N/A time=00:11:55.13 bitrate=N/A speed=16.5x    frame=17342 fps=396 q=-0.0 size=N/A time=00:12:03.30 bitrate=N/A speed=16.5x    frame=17562 fps=396 q=-0.0 size=N/A time=00:12:12.48 bitrate=N/A speed=16.5x    frame=17748 fps=396 q=-0.0 size=N/A time=00:12:20.23 bitrate=N/A speed=16.5x    frame=17956 fps=396 q=-0.0 size=N/A time=00:12:28.91 bitrate=N/A speed=16.5x    frame=18172 fps=396 q=-0.0 size=N/A time=00:12:37.92 bitrate=N/A speed=16.5x    frame=18400 fps=397 q=-0.0 size=N/A time=00:12:47.43 bitrate=N/A speed=16.5x    frame=18657 fps=398 q=-0.0 size=N/A time=00:12:58.15 bitrate=N/A speed=16.6x    frame=18883 fps=398 q=-0.0 size=N/A time=00:13:07.57 bitrate=N/A speed=16.6x    frame=19141 fps=399 q=-0.0 size=N/A time=00:13:18.33 bitrate=N/A speed=16.7x    frame=19356 fps=399 q=-0.0 size=N/A time=00:13:27.30 bitrate=N/A speed=16.7x    frame=19608 fps=400 q=-0.0 size=N/A time=00:13:37.81 bitrate=N/A speed=16.7x    frame=19847 fps=401 q=-0.0 size=N/A time=00:13:47.78 bitrate=N/A speed=16.7x    frame=20069 fps=401 q=-0.0 size=N/A time=00:13:57.04 bitrate=N/A speed=16.7x    frame=20287 fps=402 q=-0.0 size=N/A time=00:14:06.13 bitrate=N/A speed=16.7x    frame=20490 fps=401 q=-0.0 size=N/A time=00:14:14.60 bitrate=N/A speed=16.7x    frame=20686 fps=401 q=-0.0 size=N/A time=00:14:22.77 bitrate=N/A speed=16.7x    frame=20886 fps=401 q=-0.0 size=N/A time=00:14:31.12 bitrate=N/A speed=16.7x    frame=21117 fps=402 q=-0.0 size=N/A time=00:14:40.75 bitrate=N/A speed=16.7x    frame=21372 fps=402 q=-0.0 size=N/A time=00:14:51.39 bitrate=N/A speed=16.8x    frame=21624 fps=403 q=-0.0 size=N/A time=00:15:01.90 bitrate=N/A speed=16.8x    frame=21879 fps=404 q=-0.0 size=N/A time=00:15:12.53 bitrate=N/A speed=16.9x    frame=22129 fps=405 q=-0.0 size=N/A time=00:15:22.96 bitrate=N/A speed=16.9x    frame=22403 fps=406 q=-0.0 size=N/A time=00:15:34.39 bitrate=N/A speed=16.9x    frame=22640 fps=407 q=-0.0 size=N/A time=00:15:44.27 bitrate=N/A speed=  17x    frame=22838 fps=406 q=-0.0 size=N/A time=00:15:52.53 bitrate=N/A speed=16.9x    frame=23022 fps=406 q=-0.0 size=N/A time=00:16:00.20 bitrate=N/A speed=16.9x    frame=23211 fps=406 q=-0.0 size=N/A time=00:16:08.09 bitrate=N/A speed=16.9x    frame=23432 fps=406 q=-0.0 size=N/A time=00:16:17.30 bitrate=N/A speed=16.9x    frame=23625 fps=406 q=-0.0 size=N/A time=00:16:25.35 bitrate=N/A speed=16.9x    frame=23851 fps=406 q=-0.0 size=N/A time=00:16:34.78 bitrate=N/A speed=16.9x    frame=24111 fps=407 q=-0.0 size=N/A time=00:16:45.62 bitrate=N/A speed=  17x    frame=24336 fps=407 q=-0.0 size=N/A time=00:16:55.01 bitrate=N/A speed=  17x    frame=24533 fps=407 q=-0.0 size=N/A time=00:17:03.23 bitrate=N/A speed=  17x    frame=24745 fps=407 q=-0.0 size=N/A time=00:17:12.07 bitrate=N/A speed=  17x    frame=24937 fps=406 q=-0.0 size=N/A time=00:17:20.08 bitrate=N/A speed=  17x    frame=25166 fps=407 q=-0.0 size=N/A time=00:17:29.63 bitrate=N/A speed=  17x    frame=25356 fps=406 q=-0.0 size=N/A time=00:17:37.55 bitrate=N/A speed=  17x    frame=25580 fps=407 q=-0.0 size=N/A time=00:17:46.89 bitrate=N/A speed=  17x    frame=25848 fps=408 q=-0.0 size=N/A time=00:17:58.07 bitrate=N/A speed=  17x    frame=26113 fps=408 q=-0.0 size=N/A time=00:18:09.12 bitrate=N/A speed=  17x    frame=26332 fps=409 q=-0.0 size=N/A time=00:18:18.26 bitrate=N/A speed=  17x    frame=26543 fps=409 q=-0.0 size=N/A time=00:18:27.06 bitrate=N/A speed=  17x    frame=26771 fps=409 q=-0.0 size=N/A time=00:18:36.57 bitrate=N/A speed=17.1x    frame=26985 fps=409 q=-0.0 size=N/A time=00:18:45.49 bitrate=N/A speed=17.1x    frame=27154 fps=408 q=-0.0 size=N/A time=00:18:52.54 bitrate=N/A speed=  17x    frame=27313 fps=407 q=-0.0 size=N/A time=00:18:59.17 bitrate=N/A speed=  17x    frame=27510 fps=407 q=-0.0 size=N/A time=00:19:07.39 bitrate=N/A speed=  17x    frame=27730 fps=407 q=-0.0 size=N/A time=00:19:16.57 bitrate=N/A speed=  17x    frame=27920 fps=407 q=-0.0 size=N/A time=00:19:24.49 bitrate=N/A speed=  17x    frame=28117 fps=407 q=-0.0 size=N/A time=00:19:32.71 bitrate=N/A speed=  17x    frame=28288 fps=406 q=-0.0 size=N/A time=00:19:39.84 bitrate=N/A speed=  17x    frame=28513 fps=407 q=-0.0 size=N/A time=00:19:49.22 bitrate=N/A speed=  17x    frame=28721 fps=407 q=-0.0 size=N/A time=00:19:57.90 bitrate=N/A speed=  17x    frame=28956 fps=407 q=-0.0 size=N/A time=00:20:07.70 bitrate=N/A speed=  17x    frame=29162 fps=407 q=-0.0 size=N/A time=00:20:16.29 bitrate=N/A speed=  17x    frame=29418 fps=408 q=-0.0 size=N/A time=00:20:26.97 bitrate=N/A speed=  17x    frame=29628 fps=408 q=-0.0 size=N/A time=00:20:35.73 bitrate=N/A speed=  17x    frame=29846 fps=408 q=-0.0 size=N/A time=00:20:44.82 bitrate=N/A speed=  17x    frame=30020 fps=407 q=-0.0 size=N/A time=00:20:52.08 bitrate=N/A speed=  17x    frame=30243 fps=407 q=-0.0 size=N/A time=00:21:01.38 bitrate=N/A speed=  17x    frame=30466 fps=408 q=-0.0 size=N/A time=00:21:10.68 bitrate=N/A speed=  17x    frame=30709 fps=408 q=-0.0 size=N/A time=00:21:20.82 bitrate=N/A speed=  17x    frame=30928 fps=408 q=-0.0 size=N/A time=00:21:29.95 bitrate=N/A speed=  17x    frame=31139 fps=408 q=-0.0 size=N/A time=00:21:38.75 bitrate=N/A speed=  17x    frame=31336 fps=408 q=-0.0 size=N/A time=00:21:46.97 bitrate=N/A speed=  17x    frame=31518 fps=408 q=-0.0 size=N/A time=00:21:54.56 bitrate=N/A speed=  17x    frame=31703 fps=407 q=-0.0 size=N/A time=00:22:02.27 bitrate=N/A speed=  17x    frame=31871 fps=407 q=-0.0 size=N/A time=00:22:09.28 bitrate=N/A speed=  17x    frame=32029 fps=406 q=-0.0 size=N/A time=00:22:15.87 bitrate=N/A speed=16.9x    frame=32180 fps=405 q=-0.0 size=N/A time=00:22:22.17 bitrate=N/A speed=16.9x    frame=32325 fps=404 q=-0.0 size=N/A time=00:22:28.22 bitrate=N/A speed=16.9x    frame=32529 fps=404 q=-0.0 size=N/A time=00:22:36.73 bitrate=N/A speed=16.9x    frame=32710 fps=404 q=-0.0 size=N/A time=00:22:44.27 bitrate=N/A speed=16.9x    frame=32876 fps=404 q=-0.0 size=N/A time=00:22:51.20 bitrate=N/A speed=16.8x    frame=33056 fps=403 q=-0.0 size=N/A time=00:22:58.71 bitrate=N/A speed=16.8x    frame=33243 fps=403 q=-0.0 size=N/A time=00:23:06.51 bitrate=N/A speed=16.8x    frame=33447 fps=403 q=-0.0 size=N/A time=00:23:15.01 bitrate=N/A speed=16.8x    frame=33644 fps=403 q=-0.0 size=N/A time=00:23:23.23 bitrate=N/A speed=16.8x    frame=33890 fps=403 q=-0.0 size=N/A time=00:23:33.49 bitrate=N/A speed=16.8x    frame=34155 fps=404 q=-0.0 size=N/A time=00:23:44.54 bitrate=N/A speed=16.8x    frame=34425 fps=405 q=-0.0 size=N/A time=00:23:55.80 bitrate=N/A speed=16.9x    frame=34709 fps=406 q=-0.0 size=N/A time=00:24:07.65 bitrate=N/A speed=16.9x    frame=34977 fps=406 q=-0.0 size=N/A time=00:24:18.83 bitrate=N/A speed=16.9x    frame=35238 fps=407 q=-0.0 size=N/A time=00:24:29.71 bitrate=N/A speed=  17x    frame=35484 fps=407 q=-0.0 size=N/A time=00:24:39.97 bitrate=N/A speed=  17x    frame=35746 fps=408 q=-0.0 size=N/A time=00:24:50.90 bitrate=N/A speed=  17x    [Parsed_ssim_10 @ 000001f221f65500] SSIM Y:0.995339 (23.315433) U:0.994426 (22.538461) V:0.994456 (22.561554) All:0.995040 (23.045016)
[out#0/null @ 000001f21b6d4540] video:15373KiB audio:279804KiB subtitle:0KiB other streams:0KiB global headers:0KiB muxing overhead: unknown
frame=35778 fps=408 q=-0.0 Lsize=N/A time=00:24:52.24 bitrate=N/A speed=  17x    
